<svg width="12" height="13" viewBox="0 0 12 13" fill="none" xmlns="http://www.w3.org/2000/svg">
<path d="M6 0.6875C2.78906 0.6875 0.1875 3.3125 0.1875 6.5C0.1875 9.71094 2.78906 12.3125 6 12.3125C9.1875 12.3125 11.8125 9.71094 11.8125 6.5C11.8125 3.3125 9.1875 0.6875 6 0.6875ZM6 11.1875C3.39844 11.1875 1.3125 9.10156 1.3125 6.5C1.3125 3.92188 3.39844 1.8125 6 1.8125C8.57812 1.8125 10.6875 3.92188 10.6875 6.5C10.6875 9.10156 8.57812 11.1875 6 11.1875ZM8.50781 8.82031C8.55469 8.77344 8.57812 8.70312 8.57812 8.63281C8.57812 8.5625 8.55469 8.51562 8.53125 8.46875L8.0625 7.83594C7.96875 7.69531 7.78125 7.67188 7.64062 7.78906C7.42969 7.97656 6.86719 8.42188 6.11719 8.42188C4.89844 8.42188 4.26562 7.4375 4.26562 6.47656C4.26562 5.42188 4.96875 4.57812 6.09375 4.57812C6.79688 4.57812 7.33594 4.95312 7.54688 5.11719C7.66406 5.21094 7.875 5.1875 7.94531 5.04688L8.39062 4.39062C8.41406 4.34375 8.4375 4.29688 8.4375 4.22656C8.4375 4.15625 8.39062 4.08594 8.34375 4.03906C8.13281 3.82812 7.35938 3.21875 6.04688 3.21875C4.19531 3.21875 2.76562 4.625 2.76562 6.47656C2.76562 8.35156 4.125 9.80469 6.07031 9.80469C7.42969 9.80469 8.27344 9.05469 8.50781 8.82031Z" fill="white"/>
</svg>
