<svg width="40" height="40" viewBox="0 0 40 40" fill="none" xmlns="http://www.w3.org/2000/svg">
<ellipse cx="20" cy="19.6396" rx="20" ry="19.6396" fill="#F24B88"/>
<path d="M14.4649 23.5013C14.1693 23.7915 14.1693 24.262 14.4649 24.5523C14.7604 24.8425 15.2396 24.8425 15.5351 24.5523L14.4649 23.5013ZM24.9492 15C24.9492 14.5896 24.6104 14.2569 24.1924 14.2569L17.3813 14.2569C16.9633 14.2569 16.6245 14.5896 16.6245 15C16.6245 15.4104 16.9633 15.7432 17.3813 15.7432H23.4356V21.6884C23.4356 22.0988 23.7744 22.4315 24.1924 22.4315C24.6104 22.4315 24.9492 22.0988 24.9492 21.6884L24.9492 15ZM15.5351 24.5523L24.7275 15.5255L23.6573 14.4745L14.4649 23.5013L15.5351 24.5523Z" fill="#F2F2F2"/>
</svg>
